<svg width="420" height="260" viewBox="0 0 420 260" fill="none" xmlns="http://www.w3.org/2000/svg">
  <rect width="420" height="260" rx="26" fill="#07141D"/>
  <circle cx="318" cy="72" r="82" fill="#1DE59D" fill-opacity="0.14"/>
  <circle cx="112" cy="188" r="92" fill="#D8A84F" fill-opacity="0.12"/>
  <g filter="url(#shadow)">
    <rect x="92" y="42" width="236" height="176" rx="18" fill="#10202B" stroke="#315064" stroke-width="3"/>
    <g fill="#172F3C" stroke="#42657A" stroke-width="2">
      <rect x="112" y="62" width="34" height="34" rx="8"/>
      <rect x="154" y="62" width="34" height="34" rx="8"/>
      <rect x="196" y="62" width="34" height="34" rx="8"/>
      <rect x="238" y="62" width="34" height="34" rx="8"/>
      <rect x="280" y="62" width="34" height="34" rx="8"/>
      <rect x="112" y="104" width="34" height="34" rx="8"/>
      <rect x="154" y="104" width="34" height="34" rx="8"/>
      <rect x="196" y="104" width="34" height="34" rx="8"/>
      <rect x="238" y="104" width="34" height="34" rx="8"/>
      <rect x="280" y="104" width="34" height="34" rx="8"/>
      <rect x="112" y="146" width="34" height="34" rx="8"/>
      <rect x="154" y="146" width="34" height="34" rx="8"/>
      <rect x="196" y="146" width="34" height="34" rx="8"/>
      <rect x="238" y="146" width="34" height="34" rx="8"/>
      <rect x="280" y="146" width="34" height="34" rx="8"/>
    </g>
    <path d="M207 84L218 63L229 84L218 104L207 84Z" fill="#1DE59D"/>
    <path d="M207 84H229" stroke="#D8FFF0" stroke-width="3" stroke-linecap="round"/>
    <circle cx="171" cy="121" r="13" fill="#C83A32"/>
    <path d="M171 101V109M171 133V141M151 121H159M183 121H191M157 107L163 113M179 129L185 135M185 107L179 113M163 129L157 135" stroke="#FFD5D2" stroke-width="3" stroke-linecap="round"/>
    <circle cx="296" cy="163" r="7" fill="#F1D28A"/>
  </g>
  <defs>
    <filter id="shadow" x="62" y="20" width="296" height="236" filterUnits="userSpaceOnUse" color-interpolation-filters="sRGB">
      <feDropShadow dx="0" dy="18" stdDeviation="18" flood-color="#000000" flood-opacity="0.35"/>
    </filter>
  </defs>
</svg>
