<svg width="720" height="460" viewBox="0 0 720 460" fill="none" xmlns="http://www.w3.org/2000/svg">
  <rect width="720" height="460" rx="34" fill="#081620"/>
  <rect x="34" y="34" width="652" height="392" rx="28" fill="url(#felt)" stroke="#1de59d" stroke-opacity=".35" stroke-width="3"/>
  <g filter="url(#shadow)">
    <rect x="86" y="82" width="548" height="296" rx="22" fill="#0d2430"/>
    <rect x="104" y="100" width="512" height="260" rx="16" fill="#102f3b" stroke="#d8a84f" stroke-opacity=".35"/>
  </g>
  <g font-family="Arial, Helvetica, sans-serif" font-weight="800" text-anchor="middle">
    <text x="360" y="68" fill="#fff8e9" font-size="35">KENO</text>
    <text x="360" y="404" fill="#f1d28a" font-size="20">20 NUMEROS TIRES</text>
  </g>
  <g>
    <circle cx="174" cy="154" r="38" fill="#d8a84f"/>
    <circle cx="174" cy="154" r="30" fill="#162b37"/>
    <text x="174" y="166" fill="#fff8e9" font-family="Arial, Helvetica, sans-serif" font-size="34" font-weight="900" text-anchor="middle">7</text>
    <circle cx="276" cy="154" r="38" fill="#1de59d"/>
    <circle cx="276" cy="154" r="30" fill="#162b37"/>
    <text x="276" y="166" fill="#fff8e9" font-family="Arial, Helvetica, sans-serif" font-size="34" font-weight="900" text-anchor="middle">22</text>
    <circle cx="378" cy="154" r="38" fill="#ff625a"/>
    <circle cx="378" cy="154" r="30" fill="#162b37"/>
    <text x="378" y="166" fill="#fff8e9" font-family="Arial, Helvetica, sans-serif" font-size="34" font-weight="900" text-anchor="middle">45</text>
    <circle cx="480" cy="154" r="38" fill="#4193ff"/>
    <circle cx="480" cy="154" r="30" fill="#162b37"/>
    <text x="480" y="166" fill="#fff8e9" font-family="Arial, Helvetica, sans-serif" font-size="34" font-weight="900" text-anchor="middle">68</text>
  </g>
  <g opacity=".78">
    <circle cx="156" cy="254" r="22" fill="#173846" stroke="#d8a84f"/>
    <circle cx="214" cy="254" r="22" fill="#173846" stroke="#d8a84f"/>
    <circle cx="272" cy="254" r="22" fill="#173846" stroke="#d8a84f"/>
    <circle cx="330" cy="254" r="22" fill="#173846" stroke="#d8a84f"/>
    <circle cx="388" cy="254" r="22" fill="#173846" stroke="#d8a84f"/>
    <circle cx="446" cy="254" r="22" fill="#173846" stroke="#d8a84f"/>
    <circle cx="504" cy="254" r="22" fill="#173846" stroke="#d8a84f"/>
    <circle cx="562" cy="254" r="22" fill="#173846" stroke="#d8a84f"/>
  </g>
  <g filter="url(#glow)">
    <path d="M148 322H572" stroke="#1de59d" stroke-width="7" stroke-linecap="round"/>
    <path d="M212 322H508" stroke="#f1d28a" stroke-width="4" stroke-linecap="round"/>
  </g>
  <defs>
    <radialGradient id="felt" cx="0" cy="0" r="1" gradientUnits="userSpaceOnUse" gradientTransform="translate(360 204) rotate(90) scale(236 340)">
      <stop stop-color="#104c3f"/>
      <stop offset="1" stop-color="#07131c"/>
    </radialGradient>
    <filter id="shadow" x="58" y="58" width="604" height="348" filterUnits="userSpaceOnUse" color-interpolation-filters="sRGB">
      <feDropShadow dx="0" dy="18" stdDeviation="18" flood-color="#000" flood-opacity=".38"/>
    </filter>
    <filter id="glow" x="124" y="294" width="472" height="56" filterUnits="userSpaceOnUse" color-interpolation-filters="sRGB">
      <feGaussianBlur stdDeviation="8"/>
      <feComposite in2="SourceGraphic" operator="over"/>
    </filter>
  </defs>
</svg>
